<svg width="170" height="169" viewBox="0 0 170 169" fill="none" xmlns="http://www.w3.org/2000/svg">
<rect x="1.5" y="1" width="167" height="167" rx="41.133" stroke="#D3D3D3" stroke-width="1.72165" stroke-dasharray="10.33 10.33"/>
<g filter="url(#filter0_d_1_55)">
<rect x="18.7759" y="18.2759" width="132.567" height="132.567" rx="27.5464" fill="url(#paint0_linear_1_55)"/>
<rect x="19.5985" y="19.0985" width="130.922" height="130.922" rx="26.7237" stroke="#EAEAEA" stroke-width="1.64532"/>
</g>
<g clip-path="url(#clip0_1_55)">
<path d="M112.832 105.002C111.957 105.002 111.17 104.302 111.17 103.339V60.999C111.17 60.1242 111.87 59.3369 112.832 59.3369C113.707 59.3369 114.494 60.0368 114.494 60.999V103.339C114.407 104.302 113.707 105.002 112.832 105.002Z" fill="#455A64"/>
<path d="M57.3683 105.002C56.4935 105.002 55.7061 104.302 55.7061 103.339V60.999C55.7061 60.1242 56.406 59.3369 57.3683 59.3369C58.3305 59.3369 59.0304 60.0368 59.0304 60.999V103.339C59.0304 104.302 58.3305 105.002 57.3683 105.002Z" fill="#455A64"/>
<path d="M54.1322 98.7031H116.243C120.792 98.7031 124.379 102.377 124.379 106.839V113.4C124.379 117.949 120.705 121.535 116.243 121.535H54.1322C49.5832 121.535 45.9965 117.861 45.9965 113.4V106.839C45.9965 102.377 49.5832 98.7031 54.1322 98.7031Z" fill="#455A64"/>
<path d="M57.3686 111.825C58.2866 111.825 59.0308 111.081 59.0308 110.163C59.0308 109.245 58.2866 108.501 57.3686 108.501C56.4507 108.501 55.7065 109.245 55.7065 110.163C55.7065 111.081 56.4507 111.825 57.3686 111.825Z" fill="#4CAF50"/>
<path d="M67.1666 111.825C68.0846 111.825 68.8288 111.081 68.8288 110.163C68.8288 109.245 68.0846 108.501 67.1666 108.501C66.2487 108.501 65.5045 109.245 65.5045 110.163C65.5045 111.081 66.2487 111.825 67.1666 111.825Z" fill="#4CAF50"/>
<path d="M76.9646 111.825C77.8826 111.825 78.6268 111.081 78.6268 110.163C78.6268 109.245 77.8826 108.501 76.9646 108.501C76.0467 108.501 75.3025 109.245 75.3025 110.163C75.3025 111.081 76.0467 111.825 76.9646 111.825Z" fill="#4CAF50"/>
<path d="M86.7611 111.825C87.679 111.825 88.4232 111.081 88.4232 110.163C88.4232 109.245 87.679 108.501 86.7611 108.501C85.8431 108.501 85.0989 109.245 85.0989 110.163C85.0989 111.081 85.8431 111.825 86.7611 111.825Z" fill="#4CAF50"/>
<path d="M112.92 111.738H96.6485C95.7737 111.738 94.9864 111.038 94.9864 110.075C94.9864 109.201 95.6862 108.413 96.6485 108.413H113.007C113.882 108.413 114.669 109.113 114.669 110.075C114.582 111.038 113.882 111.738 112.92 111.738Z" fill="#CFD8DC"/>
<path opacity="0.35" d="M52.7327 66.3354C52.5578 66.3354 52.3828 66.248 52.2079 66.1605C50.8082 64.7608 50.1083 63.0112 50.1083 60.9991C50.1083 59.0746 50.8957 57.2375 52.2079 55.8378C52.3828 55.7503 52.5578 55.6628 52.7327 55.6628C52.9077 55.6628 53.0827 55.7503 53.2576 55.8378C53.5201 56.1002 53.5201 56.5376 53.2576 56.8876C50.9831 59.1621 50.9831 62.8362 53.2576 65.1107C53.5201 65.3732 53.5201 65.8106 53.2576 66.1605C53.1701 66.248 52.9952 66.3354 52.7327 66.3354Z" fill="#2196F3"/>
<path opacity="0.35" d="M62.0057 66.3354C61.6558 66.3354 61.3058 65.9855 61.3058 65.6356C61.3058 65.4606 61.3933 65.2857 61.4808 65.1107C63.7553 62.8362 63.7553 59.1621 61.4808 56.8876C61.3933 56.7126 61.3058 56.5376 61.3058 56.3627C61.3058 56.1877 61.3933 56.0128 61.4808 55.8378C61.6558 55.7503 61.8307 55.6628 62.0057 55.6628C62.1806 55.6628 62.3556 55.7503 62.5306 55.8378C63.9302 57.2375 64.6301 58.9871 64.6301 60.9991C64.6301 62.9237 63.8428 64.7608 62.5306 66.1605C62.3556 66.3354 62.1806 66.3354 62.0057 66.3354Z" fill="#2196F3"/>
<path opacity="0.35" d="M48.1843 70.9718C48.0093 70.9718 47.8344 70.8843 47.6594 70.7968C42.3231 65.4605 42.3231 56.7125 47.6594 51.2887C47.8344 51.2012 48.0093 51.1138 48.1843 51.1138C48.3593 51.1138 48.5342 51.2012 48.7092 51.2887C48.9716 51.5512 48.9716 51.9886 48.7092 52.251C46.3472 54.613 45.1225 57.6748 45.1225 60.999C45.1225 64.3233 46.4347 67.3851 48.7092 69.7471C48.8841 69.922 48.8841 70.097 48.8841 70.2719C48.8841 70.4469 48.7967 70.6219 48.7092 70.7968C48.5342 70.8843 48.3593 70.9718 48.1843 70.9718Z" fill="#2196F3"/>
<path opacity="0.35" d="M66.6421 70.9718C66.2922 70.9718 65.9423 70.6219 65.9423 70.2719C65.9423 70.097 66.0298 69.922 66.1173 69.7471C70.9287 64.9357 70.9287 57.0624 66.1173 52.251C65.8548 51.9886 65.8548 51.5512 66.1173 51.2887C66.2922 51.2012 66.4672 51.1138 66.6421 51.1138C66.8171 51.1138 66.9921 51.2012 67.167 51.2887C72.5033 56.625 72.5033 65.3731 67.167 70.7968C66.9921 70.8843 66.8171 70.9718 66.6421 70.9718Z" fill="#2196F3"/>
<path opacity="0.35" d="M43.5472 75.6082C43.3723 75.6082 43.1973 75.5207 43.0223 75.4333C35.0616 67.4726 35.0616 54.613 43.0223 46.6523C43.1098 46.5648 43.2848 46.4773 43.4597 46.4773C43.6347 46.4773 43.8097 46.5648 43.9846 46.6523C44.2471 46.9147 44.2471 47.3521 43.9846 47.6145C36.6363 54.9629 36.6363 66.9477 43.9846 74.296C44.2471 74.5585 44.2471 74.9959 43.9846 75.3458C43.8972 75.5207 43.7222 75.6082 43.5472 75.6082Z" fill="#2196F3"/>
<path opacity="0.35" d="M71.2793 75.6082C70.9293 75.6082 70.5794 75.2583 70.5794 74.9084C70.5794 74.7334 70.6669 74.5585 70.7544 74.3835C78.1027 67.0352 78.1027 55.0504 70.7544 47.702C70.4919 47.4396 70.4919 47.0022 70.7544 46.6523C70.9293 46.5648 71.1043 46.4773 71.2793 46.4773C71.4542 46.4773 71.6292 46.5648 71.8041 46.6523C79.6774 54.613 79.6774 67.4726 71.8041 75.3458C71.6292 75.5207 71.4542 75.6082 71.2793 75.6082Z" fill="#2196F3"/>
<path opacity="0.35" d="M108.195 66.3354C108.02 66.3354 107.845 66.248 107.67 66.1605C106.27 64.7608 105.57 63.0112 105.57 60.9991C105.57 59.0746 106.358 57.2375 107.67 55.8378C107.845 55.7503 108.02 55.6628 108.195 55.6628C108.37 55.6628 108.545 55.7503 108.72 55.8378C108.982 56.1002 108.982 56.5376 108.72 56.8876C106.445 59.1621 106.445 62.8362 108.72 65.1107C108.982 65.3732 108.982 65.8106 108.72 66.1605C108.545 66.248 108.37 66.3354 108.195 66.3354Z" fill="#2196F3"/>
<path opacity="0.35" d="M117.381 66.3354C117.031 66.3354 116.681 65.9855 116.681 65.6356C116.681 65.4606 116.769 65.2857 116.856 65.1107C119.131 62.8362 119.131 59.1621 116.856 56.8876C116.769 56.7126 116.681 56.5376 116.681 56.3627C116.681 56.1877 116.769 56.0128 116.856 55.8378C117.031 55.7503 117.206 55.6628 117.381 55.6628C117.556 55.6628 117.731 55.7503 117.906 55.8378C119.306 57.2375 120.005 58.9871 120.005 60.9991C120.005 62.9237 119.218 64.7608 117.906 66.1605C117.731 66.3354 117.556 66.3354 117.381 66.3354Z" fill="#2196F3"/>
<path opacity="0.35" d="M103.558 70.9718C103.383 70.9718 103.208 70.8843 103.033 70.7968C97.6968 65.4605 97.6968 56.7125 103.033 51.2887C103.208 51.2012 103.383 51.1138 103.558 51.1138C103.733 51.1138 103.908 51.2012 104.083 51.2887C104.345 51.5512 104.345 51.9886 104.083 52.251C101.721 54.613 100.496 57.6748 100.496 60.999C100.496 64.3233 101.808 67.3851 104.083 69.7471C104.258 69.922 104.258 70.097 104.258 70.2719C104.258 70.4469 104.17 70.6219 104.083 70.7968C103.908 70.8843 103.733 70.9718 103.558 70.9718Z" fill="#2196F3"/>
<path opacity="0.35" d="M122.017 70.9718C121.667 70.9718 121.317 70.6219 121.317 70.2719C121.317 70.097 121.404 69.922 121.492 69.7471C126.303 64.9357 126.303 57.0624 121.492 52.251C121.229 51.9886 121.229 51.5512 121.492 51.2887C121.667 51.2012 121.842 51.1138 122.017 51.1138C122.192 51.1138 122.367 51.2012 122.542 51.2887C127.878 56.625 127.878 65.3731 122.542 70.7968C122.367 70.8843 122.192 70.9718 122.017 70.9718Z" fill="#2196F3"/>
<path opacity="0.35" d="M98.9225 75.6082C98.7476 75.6082 98.5726 75.5207 98.3977 75.4333C90.437 67.4726 90.437 54.613 98.3977 46.7397C98.5726 46.5648 98.7476 46.4773 98.9225 46.4773C99.0975 46.4773 99.2725 46.5648 99.4474 46.6523C99.7099 46.9147 99.7099 47.3521 99.4474 47.6145C92.0991 54.9629 92.0991 66.9477 99.4474 74.296C99.7099 74.5585 99.7099 74.9959 99.4474 75.3458C99.2725 75.5207 99.185 75.6082 98.9225 75.6082Z" fill="#2196F3"/>
<path opacity="0.35" d="M126.654 75.6082C126.304 75.6082 125.954 75.2583 125.954 74.9084C125.954 74.7334 126.041 74.5585 126.129 74.3835C133.477 67.0352 133.477 55.0504 126.129 47.702C125.866 47.4396 125.866 47.0022 126.129 46.6523C126.304 46.5648 126.479 46.4773 126.654 46.4773C126.829 46.4773 127.004 46.5648 127.179 46.6523C135.052 54.613 135.052 67.4726 127.179 75.3458C127.004 75.5207 126.829 75.6082 126.654 75.6082Z" fill="#2196F3"/>
</g>
<defs>
<filter id="filter0_d_1_55" x="9.7266" y="10.0493" width="157.247" height="157.247" filterUnits="userSpaceOnUse" color-interpolation-filters="sRGB">
<feFlood flood-opacity="0" result="BackgroundImageFix"/>
<feColorMatrix in="SourceAlpha" type="matrix" values="0 0 0 0 0 0 0 0 0 0 0 0 0 0 0 0 0 0 127 0" result="hardAlpha"/>
<feOffset dx="3.29064" dy="4.1133"/>
<feGaussianBlur stdDeviation="6.16995"/>
<feComposite in2="hardAlpha" operator="out"/>
<feColorMatrix type="matrix" values="0 0 0 0 0.808333 0 0 0 0 0.808333 0 0 0 0 0.808333 0 0 0 0.05 0"/>
<feBlend mode="normal" in2="BackgroundImageFix" result="effect1_dropShadow_1_55"/>
<feBlend mode="normal" in="SourceGraphic" in2="effect1_dropShadow_1_55" result="shape"/>
</filter>
<linearGradient id="paint0_linear_1_55" x1="85.0594" y1="18.2759" x2="85.0594" y2="150.843" gradientUnits="userSpaceOnUse">
<stop stop-color="white"/>
<stop offset="0.9999" stop-color="#F3FDFF"/>
</linearGradient>
<clipPath id="clip0_1_55">
<rect width="96.0533" height="75.0581" fill="white" transform="translate(37.0723 46.4773)"/>
</clipPath>
</defs>
</svg>
