<svg width="210" height="38" viewBox="0 0 210 38" fill="none" xmlns="http://www.w3.org/2000/svg">
<path d="M23 36.7309C26.6203 36.7309 29.5551 33.8845 29.5551 30.3733C29.5551 26.862 26.6203 24.0156 23 24.0156C19.3797 24.0156 16.4448 26.862 16.4448 30.3733C16.4448 33.8845 19.3797 36.7309 23 36.7309Z" fill="url(#paint0_linear_1_33)"/>
<path fill-rule="evenodd" clip-rule="evenodd" d="M9.17675 20.8935L12.6964 24.9367C12.8264 25.085 13.0124 25.1766 13.2127 25.191C13.413 25.2054 13.6108 25.1413 13.762 25.0131C19.4616 20.0565 26.5196 20.0565 32.2343 25.0131C32.3854 25.1413 32.5833 25.2054 32.7836 25.191C32.9838 25.1766 33.1698 25.085 33.2999 24.9367L36.8232 20.8935C37.0892 20.5876 37.0507 20.1308 36.7369 19.8709C28.4633 12.851 17.533 12.851 9.26305 19.8709C8.94933 20.1308 8.91078 20.5876 9.17675 20.8935Z" fill="#2684FF"/>
<path fill-rule="evenodd" clip-rule="evenodd" d="M0.589319 10.4319L6.19636 16.4018C6.40361 16.6209 6.69989 16.7561 7.01893 16.7773C7.33798 16.7986 7.65317 16.7039 7.89401 16.5146C16.9741 9.19602 28.218 9.19602 37.322 16.5146C37.5628 16.7039 37.878 16.7986 38.1971 16.7773C38.5161 16.7561 38.8124 16.6209 39.0196 16.4018L44.6327 10.4319C45.0564 9.9802 44.995 9.30573 44.4952 8.92197C31.3144 -1.44339 13.9015 -1.44339 0.726805 8.92197C0.227017 9.30573 0.165603 9.9802 0.589319 10.4319Z" fill="#2684FF"/>
<path d="M65.1075 15.928C64.9475 15.032 64.5555 14.352 63.9315 13.888C63.3075 13.424 62.4995 13.192 61.5075 13.192C60.5955 13.192 59.8675 13.392 59.3235 13.792C58.7795 14.192 58.5075 14.712 58.5075 15.352C58.5075 15.896 58.7075 16.312 59.1075 16.6C59.5075 16.872 60.1075 17.096 60.9075 17.272L63.7155 17.944C64.8995 18.248 65.8435 18.552 66.5475 18.856C67.2515 19.16 67.8515 19.664 68.3475 20.368C68.8435 21.056 69.0915 22.008 69.0915 23.224C69.0915 24.36 68.7795 25.32 68.1555 26.104C67.5315 26.872 66.6835 27.448 65.6115 27.832C64.5555 28.2 63.3635 28.384 62.0355 28.384C59.9075 28.384 58.1555 27.896 56.7795 26.92C55.4195 25.928 54.6195 24.52 54.3795 22.696L57.9315 22.336C58.0595 23.472 58.4995 24.312 59.2515 24.856C60.0035 25.384 60.9475 25.648 62.0835 25.648C63.0755 25.648 63.8755 25.448 64.4835 25.048C65.1075 24.632 65.4195 24.064 65.4195 23.344C65.4195 22.864 65.3075 22.488 65.0835 22.216C64.8595 21.928 64.5475 21.704 64.1475 21.544C63.7635 21.384 63.2355 21.216 62.5635 21.04L59.7555 20.344C58.7795 20.088 57.9555 19.808 57.2835 19.504C56.6115 19.184 56.0515 18.704 55.6035 18.064C55.1555 17.424 54.9315 16.576 54.9315 15.52C54.9315 14.48 55.2195 13.584 55.7955 12.832C56.3715 12.064 57.1635 11.48 58.1715 11.08C59.1955 10.68 60.3395 10.48 61.6035 10.48C63.5075 10.48 65.0595 10.928 66.2595 11.824C67.4595 12.72 68.2435 14.008 68.6115 15.688L65.1075 15.928ZM87.2111 14.992C88.4431 14.992 89.4591 15.384 90.2591 16.168C91.0591 16.952 91.4591 18.104 91.4591 19.624V28H88.0991V20.488C88.0991 19.496 87.9151 18.784 87.5471 18.352C87.1791 17.92 86.6351 17.704 85.9151 17.704C85.2271 17.704 84.6431 18 84.1631 18.592C83.6831 19.168 83.4431 20 83.4431 21.088V28H80.0831V20.488C80.0831 19.496 79.8991 18.784 79.5311 18.352C79.1631 17.92 78.6191 17.704 77.8991 17.704C77.2111 17.704 76.6271 18 76.1471 18.592C75.6671 19.168 75.4271 20 75.4271 21.088V28H72.0671V15.304H75.2591V17.008H75.3551C76.3151 15.664 77.5871 14.992 79.1711 14.992C79.9871 14.992 80.7151 15.168 81.3551 15.52C82.0111 15.872 82.5231 16.4 82.8911 17.104C83.4671 16.432 84.0911 15.912 84.7631 15.544C85.4351 15.176 86.2511 14.992 87.2111 14.992ZM102.967 28C102.855 27.872 102.767 27.656 102.703 27.352C102.639 27.032 102.607 26.656 102.607 26.224C102.255 26.88 101.687 27.392 100.903 27.76C100.135 28.112 99.3026 28.288 98.4066 28.288C97.6546 28.288 96.9506 28.136 96.2946 27.832C95.6546 27.528 95.1346 27.096 94.7346 26.536C94.3506 25.96 94.1586 25.288 94.1586 24.52C94.1586 23.224 94.5986 22.264 95.4786 21.64C96.3586 21.016 97.6786 20.6 99.4386 20.392C100.655 20.232 101.479 20.056 101.911 19.864C102.359 19.656 102.583 19.352 102.583 18.952C102.583 18.472 102.399 18.096 102.031 17.824C101.663 17.536 101.111 17.392 100.375 17.392C99.7666 17.392 99.2226 17.552 98.7426 17.872C98.2786 18.192 97.9506 18.664 97.7586 19.288L94.6626 18.808C94.9346 17.624 95.5906 16.696 96.6306 16.024C97.6706 15.336 98.9426 14.992 100.447 14.992C102.287 14.992 103.663 15.36 104.575 16.096C105.487 16.832 105.943 17.832 105.943 19.096V25.456C105.943 26.192 105.959 26.744 105.991 27.112C106.039 27.464 106.135 27.76 106.279 28H102.967ZM102.583 21.736C102.391 21.896 102.063 22.032 101.599 22.144C101.151 22.24 100.559 22.336 99.8226 22.432C99.1506 22.544 98.6066 22.76 98.1906 23.08C97.7906 23.384 97.5906 23.816 97.5906 24.376C97.5906 24.888 97.7506 25.288 98.0706 25.576C98.4066 25.848 98.8626 25.984 99.4386 25.984C99.9346 25.984 100.423 25.88 100.903 25.672C101.383 25.464 101.783 25.144 102.103 24.712C102.423 24.264 102.583 23.712 102.583 23.056V21.736ZM112.291 17.248H112.387C112.739 16.56 113.235 16.016 113.875 15.616C114.531 15.2 115.307 14.992 116.203 14.992C116.523 14.992 116.819 15.032 117.091 15.112V18.232C116.995 18.232 116.803 18.216 116.515 18.184C116.243 18.152 115.995 18.136 115.771 18.136C113.547 18.136 112.435 19.288 112.435 21.592V28H109.075V15.304H112.291V17.248ZM127.104 25.384V28C126.656 28.032 125.92 28.048 124.896 28.048C123.984 28.048 123.264 27.968 122.736 27.808C122.208 27.632 121.816 27.328 121.56 26.896C121.304 26.448 121.176 25.808 121.176 24.976V17.56H119.16V15.304H121.176V11.752H124.536V15.304H127.2V17.56H124.536V24.136C124.536 24.664 124.64 25.008 124.848 25.168C125.072 25.312 125.464 25.384 126.024 25.384H127.104ZM136.03 10.864H139.63V24.976H148.654V28H136.03V10.864ZM154.764 15.304V28H151.404V15.304H154.764ZM154.764 10.624V13.504H151.404V10.624H154.764ZM170.278 27.04C170.278 29.024 169.702 30.464 168.55 31.36C167.414 32.256 165.886 32.704 163.966 32.704C162.382 32.704 161.046 32.368 159.958 31.696C158.87 31.024 158.134 29.976 157.75 28.552L161.062 28.144C161.27 28.864 161.614 29.384 162.094 29.704C162.574 30.04 163.198 30.208 163.966 30.208C165.934 30.208 166.918 29.12 166.918 26.944V25.72H166.822C166.07 26.792 164.83 27.328 163.102 27.328C162.062 27.328 161.126 27.08 160.294 26.584C159.462 26.072 158.806 25.352 158.326 24.424C157.862 23.48 157.63 22.392 157.63 21.16C157.63 19.928 157.862 18.848 158.326 17.92C158.806 16.976 159.462 16.256 160.294 15.76C161.142 15.248 162.094 14.992 163.15 14.992C163.998 14.992 164.75 15.144 165.406 15.448C166.078 15.752 166.598 16.208 166.966 16.816H167.062V15.304H170.278V27.04ZM164.086 24.808C164.998 24.808 165.726 24.48 166.27 23.824C166.83 23.152 167.11 22.264 167.11 21.16C167.11 20.072 166.83 19.2 166.27 18.544C165.726 17.888 164.998 17.56 164.086 17.56C163.158 17.56 162.422 17.888 161.878 18.544C161.334 19.2 161.062 20.072 161.062 21.16C161.062 22.264 161.334 23.152 161.878 23.824C162.422 24.48 163.158 24.808 164.086 24.808ZM176.867 16.984C177.827 15.656 179.139 14.992 180.803 14.992C182.067 14.992 183.115 15.384 183.947 16.168C184.779 16.952 185.195 18.104 185.195 19.624V28H181.835V20.488C181.835 19.496 181.635 18.784 181.235 18.352C180.851 17.92 180.259 17.704 179.459 17.704C178.995 17.704 178.555 17.848 178.139 18.136C177.723 18.408 177.387 18.816 177.131 19.36C176.891 19.888 176.771 20.512 176.771 21.232V28H173.411V10.624H176.771V16.984H176.867ZM195.471 25.384V28C195.023 28.032 194.287 28.048 193.263 28.048C192.351 28.048 191.631 27.968 191.103 27.808C190.575 27.632 190.183 27.328 189.927 26.896C189.671 26.448 189.543 25.808 189.543 24.976V17.56H187.527V15.304H189.543V11.752H192.903V15.304H195.567V17.56H192.903V24.136C192.903 24.664 193.007 25.008 193.215 25.168C193.439 25.312 193.831 25.384 194.391 25.384H195.471ZM205.935 19.144C205.807 18.536 205.511 18.064 205.047 17.728C204.599 17.392 204.063 17.224 203.439 17.224C202.815 17.224 202.311 17.36 201.927 17.632C201.543 17.888 201.351 18.256 201.351 18.736C201.351 19.152 201.535 19.456 201.903 19.648C202.271 19.84 202.831 20 203.583 20.128L204.879 20.32C206.287 20.56 207.383 20.952 208.167 21.496C208.967 22.04 209.367 22.952 209.367 24.232C209.367 25.576 208.831 26.592 207.759 27.28C206.687 27.952 205.279 28.288 203.535 28.288C201.871 28.288 200.495 27.936 199.407 27.232C198.335 26.512 197.695 25.536 197.487 24.304L200.631 23.848C200.791 24.6 201.119 25.16 201.615 25.528C202.127 25.896 202.783 26.08 203.583 26.08C204.303 26.08 204.879 25.928 205.311 25.624C205.743 25.32 205.959 24.904 205.959 24.376C205.959 23.944 205.759 23.616 205.359 23.392C204.959 23.168 204.359 22.992 203.559 22.864L202.167 22.648C200.903 22.44 199.887 22.064 199.119 21.52C198.367 20.976 197.991 20.096 197.991 18.88C197.991 18.096 198.231 17.408 198.711 16.816C199.207 16.224 199.871 15.776 200.703 15.472C201.535 15.152 202.447 14.992 203.439 14.992C204.911 14.992 206.159 15.336 207.183 16.024C208.223 16.712 208.839 17.608 209.031 18.712L205.935 19.144Z" fill="url(#paint1_linear_1_33)"/>
<defs>
<linearGradient id="paint0_linear_1_33" x1="23" y1="34.5438" x2="23" y2="23.2805" gradientUnits="userSpaceOnUse">
<stop stop-color="#2684FF"/>
<stop offset="0.82" stop-color="#0052CC"/>
</linearGradient>
<linearGradient id="paint1_linear_1_33" x1="132" y1="28" x2="132" y2="-27.1419" gradientUnits="userSpaceOnUse">
<stop stop-color="white"/>
<stop offset="1" stop-color="#2684FF"/>
</linearGradient>
</defs>
</svg>
