<svg width="13" height="4" viewBox="0 0 13 4" fill="none" xmlns="http://www.w3.org/2000/svg">
<path opacity="0.35" d="M12.7981 1.18411C12.7981 1.28981 12.7453 1.39552 12.6924 1.50122C9.46848 4.72518 4.1833 4.72518 0.906485 1.50122C0.853633 1.39552 0.800781 1.28981 0.800781 1.18411C0.800781 1.07841 0.853633 0.972701 0.906485 0.866998C1.06504 0.708442 1.3293 0.708442 1.48785 0.866998C2.91485 2.294 4.76467 3.03392 6.77304 3.03392C8.7814 3.03392 10.6312 2.24114 12.0582 0.866997C12.1639 0.761294 12.2696 0.761294 12.3753 0.761294C12.481 0.761294 12.5867 0.814146 12.6924 0.866997C12.7453 0.972701 12.7981 1.0784 12.7981 1.18411Z" fill="#2196F3"/>
</svg>
